HIERARCHY
ROOT Hips
{
	OFFSET 0.00000 0.00000 0.00000
	CHANNELS 6 Xposition Yposition Zposition Zrotation Yrotation Xrotation 
	JOINT LHipJoint
	{
		OFFSET 0 0 0
		CHANNELS 3 Zrotation Yrotation Xrotation
		JOINT LeftHip
		{
			OFFSET 1.57093 -1.69714 0.87455
			CHANNELS 3 Zrotation Yrotation Xrotation
			JOINT LeftKnee
			{
				OFFSET 2.48056 -6.81529 0.00000
				CHANNELS 3 Zrotation Yrotation Xrotation
				JOINT LeftAnkle
				{
					OFFSET 2.62558 -7.21374 0.00000
					CHANNELS 3 Zrotation Yrotation Xrotation
					JOINT LeftToe
					{
						OFFSET 0.17911 -0.49210 2.16707
						CHANNELS 3 Zrotation Yrotation Xrotation
						End Site
						{
							OFFSET 0.00000 -0.00000 1.11848
						}
					}
				}
			}
		}
	}
	JOINT RHipJoint
	{
		OFFSET 0 0 0
		CHANNELS 3 Zrotation Yrotation Xrotation
		JOINT RightHip
		{
			OFFSET -1.69739 -1.69715 0.87455
			CHANNELS 3 Zrotation Yrotation Xrotation
			JOINT RightKnee
			{
				OFFSET -2.33658 -6.41972 0.00000
				CHANNELS 3 Zrotation Yrotation Xrotation
				JOINT RightAnkle
				{
					OFFSET -2.60856 -7.16696 0.00000
					CHANNELS 3 Zrotation Yrotation Xrotation
					JOINT RightToe
					{
						OFFSET -0.20854 -0.57296 2.11053
						CHANNELS 3 Zrotation Yrotation Xrotation
						End Site
						{
							OFFSET -0.00000 -0.00000 1.09848
						}
					}
				}
			}
		}
	}
	JOINT lowerback
	{
		OFFSET 0 0 0
		CHANNELS 3 Zrotation Yrotation Xrotation
		JOINT Chest
		{
			OFFSET 0.02563 2.15732 -0.03270
			CHANNELS 3 Zrotation Yrotation Xrotation
			JOINT Chest2
			{
				OFFSET 0.00281 2.14662 0.09285
				CHANNELS 3 Zrotation Yrotation Xrotation
				JOINT lowerneck
				{
					OFFSET 0 0 0
					CHANNELS 3 Zrotation Yrotation Xrotation
					JOINT Neck
					{
						OFFSET -0.04440 1.68397 0.17601
						CHANNELS 3 Zrotation Yrotation Xrotation
						JOINT Head
						{
							OFFSET 0.06040 1.66995 -0.35615
							CHANNELS 3 Zrotation Yrotation Xrotation
							End Site
							{
								OFFSET 0.02405 1.72189 -0.14044
							}
						}
					}
				}
				JOINT LeftCollar
				{
					OFFSET 0 0 0
					CHANNELS 3 Zrotation Yrotation Xrotation
					JOINT LeftShoulder
					{
						OFFSET 2.98955 1.90907 -0.21660
CHANNELS 3 Zrotation Xrotation Yrotation
						JOINT LeftElbow
						{
OFFSET 0 -4.913770 0.000000
CHANNELS 3 Zrotation Xrotation Yrotation
							JOINT LeftWrist
							{
OFFSET 0 -3.002910 -0.000000
CHANNELS 3 Zrotation Xrotation Yrotation
								JOINT lhand
								{
									OFFSET 0 0 0
CHANNELS 3 Zrotation Xrotation Yrotation
									JOINT LFingers
									{
OFFSET 0 -0.450920 -0.000000
CHANNELS 3 Zrotation Xrotation Yrotation
										End Site
										{
OFFSET 0 -0.363550 -0.000000
										}
									}
								}
								JOINT LThumb
								{
OFFSET 0 0.000000 0.000000
CHANNELS 3 Zrotation Xrotation Yrotation
									End Site
									{
OFFSET 0 -0.369100 0.369100
									}
								}
							}
						}
					}
				}
				JOINT RightCollar
				{
					OFFSET 0 0 0
					CHANNELS 3 Zrotation Yrotation Xrotation
					JOINT RightShoulder
					{
						OFFSET -2.80452 1.90886 -0.21152
CHANNELS 3 Zrotation Xrotation Yrotation
						JOINT RightElbow
						{
OFFSET 0 -4.867250 0.000000
CHANNELS 3 Zrotation Xrotation Yrotation
							JOINT RightWrist
							{
OFFSET 0 -3.171440 -0.000000
CHANNELS 3 Zrotation Xrotation Yrotation
								JOINT rhand
								{
									OFFSET 0 0 0
CHANNELS 3 Zrotation Xrotation Yrotation
									JOINT RFingers
									{
OFFSET 0 -0.419370 -0.000000
CHANNELS 3 Zrotation Xrotation Yrotation
										End Site
										{
OFFSET 0 -0.338100 -0.000000
										}
									}
								}
								JOINT RThumb
								{
OFFSET 0 0.000000 0.000000
CHANNELS 3 Zrotation Xrotation Yrotation
									End Site
									{
OFFSET 0 -0.343270 0.343270
									}
								}
							}
						}
					}
				}
			}
		}
	}
}
MOTION
Frames: 7
Frame Time: 0.008333333333333333
-0.080500 14.517200 8.393700 2.662600 6.616500 106.232000 0.000000 0.000000 0.000000 -12.338200 -22.824000 -36.034500 3.014500 10.718500 31.336400 0.015100 -9.656200 -7.028500 3.329700 -11.210500 -32.993200 0.000000 0.000000 0.000000 17.266100 4.265200 -39.742500 -3.373500 -11.276500 33.218200 0.267200 -12.089100 4.052800 -0.120600 -2.238800 6.166000 -4.940500 2.636400 -17.293800 0.428800 4.492400 -7.269900 4.041600 2.465000 1.471700 0.986100 -5.729400 -12.347400 -0.593000 -8.094400 44.374200 -1.861200 -2.800200 18.888600 -0.000000 0.000000 0.000000 173.482200 -32.178500 54.076200 13.956500 -22.672500 2.811300 7.874300 27.716700 -0.304100 0.000000 0.000000 0.000000 -7.125000 0.000000 0.000000 -14.654100 30.104300 -5.489500 -0.000000 0.000000 0.000000 -170.621800 -26.942000 -74.069700 -18.022900 -28.186500 -4.560100 -7.512700 -8.334200 23.905700 0.000000 0.000000 0.000000 7.125000 0.000000 -0.000000 22.306500 52.660100 -4.380800
-0.094001 14.538160 8.366717 2.482953 6.676253 106.054164 0.000000 0.000000 0.000000 -12.657769 -22.829113 -36.112004 3.504946 11.470609 33.884025 -0.094069 -10.709267 -5.936406 2.899133 -10.529748 -30.710042 0.000000 0.000000 0.000000 18.310990 2.678000 -41.304438 -4.377710 -12.646443 38.059404 0.083857 -10.796499 6.193380 -0.123325 -2.263538 6.234452 -4.968569 2.793292 -17.339884 0.497713 4.712622 -7.172848 4.174509 2.574353 1.567789 0.729896 -5.978287 -12.394016 -0.566846 -8.392432 44.637450 -1.866982 -2.930829 19.088898 0.000000 0.000000 0.000000 173.233605 -31.146707 50.754118 13.566629 -22.111772 2.662842 10.257904 28.139622 -1.613601 0.000000 0.000000 0.000000 -7.125000 0.000000 0.000000 -12.993273 31.449058 -4.405847 0.000000 0.000000 0.000000 -170.980635 -26.865870 -74.707366 -17.660514 -27.720310 -4.390175 -7.994004 -7.132048 23.898960 0.000000 0.000000 0.000000 7.125000 0.000000 0.000000 21.843338 52.737083 -4.324856
-0.109163 14.560537 8.341375 2.235028 6.722460 105.884765 0.000000 0.000000 0.000000 -13.050797 -22.627653 -35.986117 4.046833 12.222232 36.523033 -0.186565 -11.195458 -4.649403 2.377672 -9.611583 -27.728245 0.000000 0.000000 0.000000 19.161760 1.449385 -42.414615 -5.379621 -13.798390 42.436868 -0.080503 -9.812871 8.172683 -0.152663 -2.517505 6.938147 -4.975836 2.919294 -17.357219 0.566431 4.884886 -7.083809 4.285362 2.658717 1.646491 0.473203 -6.185835 -12.358554 -0.566686 -8.616337 44.907836 -1.869270 -3.038930 19.273172 0.000000 0.000000 0.000000 173.181955 -30.107165 47.269384 13.323045 -21.758711 2.571811 12.495505 27.554229 -3.456358 0.000000 0.000000 0.000000 -7.125000 0.000000 0.000000 -11.483424 33.356524 -3.335373 0.000000 0.000000 0.000000 -171.388398 -26.815652 -75.680604 -17.165709 -27.075625 -4.162454 -8.463146 -5.650549 23.338285 0.000000 0.000000 0.000000 7.125000 0.000000 0.000000 21.091253 52.296531 -3.931155
-0.124603 14.582278 8.321714 1.958579 6.792328 105.767237 0.000000 0.000000 0.000000 -13.454238 -22.162631 -35.708732 4.637408 12.963094 39.231097 -0.250233 -11.160181 -3.204278 1.871551 -8.592669 -24.529554 0.000000 0.000000 0.000000 19.896578 0.505113 -43.131316 -6.320495 -14.731382 46.253881 -0.220796 -9.058730 9.816130 -0.163767 -2.607538 7.187808 -4.958201 3.010940 -17.391897 0.656950 5.005805 -7.019536 4.397005 2.717752 1.712979 0.218970 -6.385654 -12.309065 -0.605429 -8.814904 45.184789 -1.886563 -3.143223 19.457823 0.000000 0.000000 0.000000 173.253876 -29.084596 43.682459 13.118752 -21.460902 2.496510 14.647363 26.736746 -5.561276 0.000000 0.000000 0.000000 -7.125000 0.000000 0.000000 -10.044144 35.576110 -2.356325 0.000000 0.000000 0.000000 -171.728327 -26.773083 -76.625582 -16.694699 -26.453490 -3.950351 -8.865083 -4.165428 22.627702 0.000000 0.000000 0.000000 7.125000 0.000000 0.000000 20.339626 51.699310 -3.475602
-0.133587 14.601983 8.307381 1.961656 6.760668 105.600529 0.000000 0.000000 0.000000 -14.019852 -21.720782 -35.100459 5.239083 13.647691 41.844727 -0.303729 -11.079883 -1.625960 1.412878 -7.516642 -21.255770 0.000000 0.000000 0.000000 20.423206 -0.489980 -43.378291 -7.154679 -15.460331 49.456223 -0.331917 -8.641345 11.120110 -0.191522 -2.818114 7.772769 -4.868079 2.973041 -17.280817 0.725216 4.928901 -6.929998 4.401894 2.671905 1.760645 0.162119 -6.463172 -12.360418 -0.831935 -8.821139 45.314079 -1.994105 -3.175449 19.541043 0.000000 0.000000 0.000000 173.358496 -28.188538 40.569924 12.977531 -21.254390 2.445139 16.649891 25.992585 -7.743185 0.000000 0.000000 0.000000 -7.125000 0.000000 0.000000 -8.708222 37.925537 -1.531555 0.000000 0.000000 0.000000 -172.052781 -26.767163 -77.636937 -16.314599 -25.945332 -3.782578 -9.058724 -2.882050 22.041374 0.000000 0.000000 0.000000 7.125000 0.000000 0.000000 19.864188 51.179879 -3.129020
-0.144894 14.625138 8.296256 1.955240 6.710818 105.667633 0.000000 0.000000 0.000000 -14.456183 -21.187569 -34.655730 5.826062 14.257272 44.278893 -0.341837 -11.066352 -0.258622 0.998353 -6.356874 -17.824174 0.000000 0.000000 0.000000 20.802176 -1.139791 -43.511367 -7.873538 -16.025132 52.105434 -0.433291 -8.390035 12.280604 -0.230696 -3.091122 8.532515 -4.762018 2.907969 -17.261750 0.765807 4.818397 -6.902729 4.366883 2.610999 1.797423 0.185711 -6.389223 -12.487604 -0.978552 -8.664832 45.173453 -2.041631 -3.139358 19.467739 0.000000 0.000000 0.000000 173.472752 -27.534573 38.461888 12.901297 -21.142375 2.417542 18.596483 25.542409 -9.734638 0.000000 0.000000 0.000000 -7.125000 0.000000 0.000000 -7.360463 40.133998 -0.889504 0.000000 0.000000 0.000000 -172.344889 -26.758872 -78.589411 -16.019187 -25.546615 -3.654249 -9.135029 -1.727549 21.623868 0.000000 0.000000 0.000000 7.125000 0.000000 0.000000 19.590534 50.798351 -2.894511
-0.158807 14.650567 8.285249 2.000226 6.615823 105.976544 0.000000 0.000000 0.000000 -14.702304 -20.792208 -34.331093 6.333186 14.743397 46.304203 -0.366656 -11.030924 1.034049 0.650463 -5.156285 -14.355468 0.000000 0.000000 0.000000 21.065156 -1.583393 -43.592122 -8.464374 -16.450154 54.218196 -0.528391 -8.101036 13.301794 -0.261292 -3.288427 9.082769 -4.652404 2.833188 -17.293662 0.762775 4.699069 -6.949776 4.282381 2.549170 1.786500 0.051454 -6.345856 -12.617898 -0.873399 -8.608721 44.927280 -1.955917 -3.140659 19.361132 0.000000 0.000000 0.000000 173.528949 -27.152994 37.482768 12.848013 -21.064106 2.398413 20.464132 25.842474 -11.512553 0.000000 0.000000 0.000000 -7.125000 0.000000 0.000000 -6.015125 42.168208 -0.423016 0.000000 0.000000 0.000000 -172.541987 -26.671646 -79.117775 -15.830435 -25.290144 -3.573186 -9.305288 -0.731688 21.355857 0.000000 0.000000 0.000000 7.125000 0.000000 0.000000 19.303753 50.571977 -2.739123
